<svg width="182" height="25" viewBox="0 0 182 25" fill="none" xmlns="http://www.w3.org/2000/svg">
<line x1="20.9864" y1="2.8356" x2="23.9864" y2="20.8356" stroke="#3D81A8" stroke-width="2"/>
<rect y="21.8315" width="29.187" height="4" transform="rotate(-48.0717 0 21.8315)" fill="#E8B638"/>
<rect x="22.4766" y="21.4146" width="28.7837" height="4" transform="rotate(-48.0717 22.4766 21.4146)" fill="#E8B638"/>
<path d="M53.072 21.12C52.768 21.12 52.528 21.032 52.352 20.856C52.176 20.664 52.088 20.416 52.088 20.112V4.968C52.088 4.664 52.176 4.424 52.352 4.248C52.528 4.056 52.768 3.96 53.072 3.96C53.376 3.96 53.616 4.056 53.792 4.248C53.968 4.424 54.056 4.664 54.056 4.968V20.112C54.056 20.416 53.968 20.664 53.792 20.856C53.616 21.032 53.376 21.12 53.072 21.12ZM63.3406 19.584C63.9006 19.632 64.1806 19.888 64.1806 20.352C64.1806 20.624 64.0766 20.832 63.8686 20.976C63.6766 21.104 63.3806 21.152 62.9806 21.12L62.3326 21.072C61.0526 20.976 60.1086 20.592 59.5006 19.92C58.8926 19.248 58.5886 18.232 58.5886 16.872V10.848H56.9806C56.7086 10.848 56.4926 10.784 56.3326 10.656C56.1886 10.512 56.1166 10.328 56.1166 10.104C56.1166 9.864 56.1886 9.672 56.3326 9.528C56.4926 9.384 56.7086 9.312 56.9806 9.312H58.5886V6.6C58.5886 6.296 58.6766 6.064 58.8526 5.904C59.0286 5.728 59.2686 5.64 59.5726 5.64C59.8606 5.64 60.0926 5.728 60.2686 5.904C60.4446 6.064 60.5326 6.296 60.5326 6.6V9.312H63.1966C63.4526 9.312 63.6526 9.384 63.7966 9.528C63.9566 9.672 64.0366 9.864 64.0366 10.104C64.0366 10.328 63.9566 10.512 63.7966 10.656C63.6526 10.784 63.4526 10.848 63.1966 10.848H60.5326V16.968C60.5326 17.848 60.7086 18.488 61.0606 18.888C61.4286 19.272 61.9726 19.488 62.6926 19.536L63.3406 19.584ZM75.1449 18.288C75.3209 18.288 75.4729 18.36 75.6009 18.504C75.7289 18.648 75.7929 18.832 75.7929 19.056C75.7929 19.456 75.5129 19.824 74.9529 20.16C74.3769 20.496 73.7689 20.752 73.1289 20.928C72.4889 21.088 71.8649 21.168 71.2569 21.168C69.4489 21.168 68.0169 20.632 66.9609 19.56C65.9209 18.488 65.4009 17.008 65.4009 15.12C65.4009 13.92 65.6329 12.864 66.0969 11.952C66.5609 11.024 67.2089 10.304 68.0409 9.792C68.8889 9.28 69.8489 9.024 70.9209 9.024C72.4409 9.024 73.6489 9.52 74.5449 10.512C75.4409 11.504 75.8889 12.848 75.8889 14.544C75.8889 14.864 75.8249 15.096 75.6969 15.24C75.5689 15.384 75.3609 15.456 75.0729 15.456H67.3449C67.4889 18.208 68.7929 19.584 71.2569 19.584C71.8809 19.584 72.4169 19.504 72.8649 19.344C73.3129 19.168 73.7929 18.936 74.3049 18.648C74.7209 18.408 75.0009 18.288 75.1449 18.288ZM70.9449 10.536C69.9209 10.536 69.0969 10.856 68.4729 11.496C67.8649 12.136 67.5049 13.04 67.3929 14.208H74.1849C74.1529 13.024 73.8569 12.12 73.2969 11.496C72.7369 10.856 71.9529 10.536 70.9449 10.536ZM83.5771 21.168C82.4891 21.168 81.5211 20.92 80.6731 20.424C79.8411 19.928 79.1931 19.224 78.7291 18.312C78.2811 17.4 78.0571 16.344 78.0571 15.144C78.0571 13.944 78.2891 12.88 78.7531 11.952C79.2331 11.024 79.8971 10.304 80.7451 9.792C81.5931 9.28 82.5691 9.024 83.6731 9.024C84.2811 9.024 84.8811 9.112 85.4731 9.288C86.0811 9.448 86.6091 9.688 87.0571 10.008C87.3451 10.2 87.5451 10.392 87.6571 10.584C87.7851 10.76 87.8491 10.96 87.8491 11.184C87.8491 11.408 87.7851 11.592 87.6571 11.736C87.5451 11.88 87.3931 11.952 87.2011 11.952C87.0891 11.952 86.9691 11.92 86.8411 11.856C86.7131 11.792 86.6011 11.728 86.5051 11.664C86.4251 11.6 86.3691 11.56 86.3371 11.544C85.9211 11.272 85.5211 11.056 85.1371 10.896C84.7691 10.736 84.3131 10.656 83.7691 10.656C82.6011 10.656 81.6891 11.056 81.0331 11.856C80.3931 12.64 80.0731 13.736 80.0731 15.144C80.0731 16.552 80.3931 17.64 81.0331 18.408C81.6891 19.176 82.6011 19.56 83.7691 19.56C84.3131 19.56 84.7771 19.48 85.1611 19.32C85.5611 19.16 85.9611 18.944 86.3611 18.672C86.5371 18.56 86.7051 18.464 86.8651 18.384C87.0251 18.304 87.1611 18.264 87.2731 18.264C87.4491 18.264 87.5931 18.336 87.7051 18.48C87.8331 18.624 87.8971 18.808 87.8971 19.032C87.8971 19.24 87.8411 19.432 87.7291 19.608C87.6171 19.768 87.4091 19.952 87.1051 20.16C86.6571 20.464 86.1131 20.712 85.4731 20.904C84.8491 21.08 84.2171 21.168 83.5771 21.168ZM96.1415 9.024C97.5175 9.024 98.5575 9.416 99.2615 10.2C99.9655 10.968 100.318 12.12 100.318 13.656V20.16C100.318 20.464 100.23 20.704 100.054 20.88C99.8775 21.04 99.6455 21.12 99.3575 21.12C99.0535 21.12 98.8135 21.04 98.6375 20.88C98.4615 20.704 98.3735 20.464 98.3735 20.16V13.704C98.3735 12.664 98.1575 11.896 97.7255 11.4C97.3095 10.904 96.6375 10.656 95.7095 10.656C94.6375 10.656 93.7815 10.984 93.1415 11.64C92.5015 12.296 92.1815 13.184 92.1815 14.304V20.16C92.1815 20.464 92.0935 20.704 91.9175 20.88C91.7575 21.04 91.5255 21.12 91.2215 21.12C90.9175 21.12 90.6775 21.04 90.5015 20.88C90.3255 20.704 90.2375 20.464 90.2375 20.16V4.896C90.2375 4.624 90.3255 4.4 90.5015 4.224C90.6935 4.048 90.9335 3.96 91.2215 3.96C91.5255 3.96 91.7575 4.048 91.9175 4.224C92.0935 4.384 92.1815 4.608 92.1815 4.896V11.184C92.5655 10.48 93.1015 9.944 93.7895 9.576C94.4775 9.208 95.2615 9.024 96.1415 9.024ZM123.002 3.96C123.29 3.96 123.514 4.056 123.674 4.248C123.834 4.424 123.914 4.664 123.914 4.968V20.112C123.914 20.416 123.826 20.664 123.65 20.856C123.49 21.032 123.258 21.12 122.954 21.12C122.65 21.12 122.386 20.984 122.162 20.712L112.202 7.392V20.112C112.202 20.416 112.114 20.664 111.938 20.856C111.778 21.032 111.554 21.12 111.266 21.12C110.978 21.12 110.754 21.032 110.594 20.856C110.434 20.664 110.354 20.416 110.354 20.112V4.968C110.354 4.664 110.434 4.424 110.594 4.248C110.77 4.056 111.01 3.96 111.314 3.96C111.634 3.96 111.906 4.096 112.13 4.368L122.066 17.688V4.968C122.066 4.664 122.146 4.424 122.306 4.248C122.482 4.056 122.714 3.96 123.002 3.96ZM132.656 21.168C131.552 21.168 130.576 20.92 129.728 20.424C128.896 19.928 128.248 19.224 127.784 18.312C127.336 17.384 127.112 16.312 127.112 15.096C127.112 13.88 127.336 12.816 127.784 11.904C128.248 10.976 128.896 10.264 129.728 9.768C130.576 9.272 131.552 9.024 132.656 9.024C133.76 9.024 134.736 9.272 135.584 9.768C136.432 10.264 137.08 10.976 137.528 11.904C137.992 12.816 138.224 13.88 138.224 15.096C138.224 16.312 137.992 17.384 137.528 18.312C137.08 19.224 136.432 19.928 135.584 20.424C134.736 20.92 133.76 21.168 132.656 21.168ZM132.656 19.56C133.808 19.56 134.688 19.184 135.296 18.432C135.92 17.664 136.232 16.552 136.232 15.096C136.232 13.672 135.92 12.576 135.296 11.808C134.672 11.024 133.792 10.632 132.656 10.632C131.52 10.632 130.64 11.024 130.016 11.808C129.392 12.576 129.08 13.672 129.08 15.096C129.08 16.536 129.384 17.64 129.992 18.408C130.616 19.176 131.504 19.56 132.656 19.56ZM146.904 9.072C147.576 9.024 147.912 9.296 147.912 9.888C147.912 10.144 147.84 10.352 147.696 10.512C147.552 10.656 147.304 10.744 146.952 10.776L146.232 10.848C145.16 10.944 144.36 11.328 143.832 12C143.32 12.656 143.064 13.432 143.064 14.328V20.16C143.064 20.48 142.976 20.72 142.8 20.88C142.624 21.04 142.392 21.12 142.104 21.12C141.816 21.12 141.576 21.04 141.384 20.88C141.208 20.704 141.12 20.464 141.12 20.16V10.032C141.12 9.728 141.216 9.496 141.408 9.336C141.6 9.16 141.832 9.072 142.104 9.072C142.36 9.072 142.576 9.16 142.752 9.336C142.928 9.496 143.016 9.72 143.016 10.008V11.352C143.352 10.648 143.824 10.112 144.432 9.744C145.056 9.376 145.768 9.16 146.568 9.096L146.904 9.072ZM158.731 3.96C159.035 3.96 159.275 4.048 159.451 4.224C159.627 4.4 159.715 4.624 159.715 4.896V20.16C159.715 20.448 159.627 20.68 159.451 20.856C159.275 21.032 159.035 21.12 158.731 21.12C158.427 21.12 158.187 21.032 158.011 20.856C157.851 20.68 157.771 20.448 157.771 20.16V18.864C157.419 19.6 156.899 20.168 156.211 20.568C155.539 20.968 154.747 21.168 153.835 21.168C152.811 21.168 151.907 20.912 151.123 20.4C150.339 19.888 149.731 19.176 149.299 18.264C148.867 17.336 148.651 16.264 148.651 15.048C148.651 13.848 148.867 12.792 149.299 11.88C149.731 10.968 150.339 10.264 151.123 9.768C151.907 9.272 152.811 9.024 153.835 9.024C154.747 9.024 155.539 9.224 156.211 9.624C156.899 10.024 157.419 10.592 157.771 11.328V4.896C157.771 4.608 157.851 4.384 158.011 4.224C158.187 4.048 158.427 3.96 158.731 3.96ZM154.219 19.56C155.355 19.56 156.227 19.176 156.835 18.408C157.459 17.624 157.771 16.52 157.771 15.096C157.771 13.672 157.459 12.576 156.835 11.808C156.227 11.04 155.355 10.656 154.219 10.656C153.083 10.656 152.195 11.04 151.555 11.808C150.931 12.576 150.619 13.656 150.619 15.048C150.619 16.472 150.931 17.584 151.555 18.384C152.195 19.168 153.083 19.56 154.219 19.56ZM164.3 21.12C164.012 21.12 163.772 21.04 163.58 20.88C163.404 20.704 163.316 20.464 163.316 20.16V10.032C163.316 9.728 163.404 9.496 163.58 9.336C163.772 9.16 164.012 9.072 164.3 9.072C164.588 9.072 164.82 9.16 164.996 9.336C165.172 9.496 165.26 9.728 165.26 10.032V20.16C165.26 20.48 165.172 20.72 164.996 20.88C164.82 21.04 164.588 21.12 164.3 21.12ZM164.3 6.552C163.916 6.552 163.604 6.44 163.364 6.216C163.124 5.992 163.004 5.696 163.004 5.328C163.004 4.976 163.124 4.688 163.364 4.464C163.604 4.24 163.916 4.128 164.3 4.128C164.684 4.128 164.996 4.24 165.236 4.464C165.476 4.688 165.596 4.976 165.596 5.328C165.596 5.696 165.476 5.992 165.236 6.216C164.996 6.44 164.684 6.552 164.3 6.552ZM173.718 21.168C172.63 21.168 171.662 20.92 170.814 20.424C169.982 19.928 169.334 19.224 168.87 18.312C168.422 17.4 168.198 16.344 168.198 15.144C168.198 13.944 168.43 12.88 168.894 11.952C169.374 11.024 170.038 10.304 170.886 9.792C171.734 9.28 172.71 9.024 173.814 9.024C174.422 9.024 175.022 9.112 175.614 9.288C176.222 9.448 176.75 9.688 177.198 10.008C177.486 10.2 177.686 10.392 177.798 10.584C177.926 10.76 177.99 10.96 177.99 11.184C177.99 11.408 177.926 11.592 177.798 11.736C177.686 11.88 177.534 11.952 177.342 11.952C177.23 11.952 177.11 11.92 176.982 11.856C176.854 11.792 176.742 11.728 176.646 11.664C176.566 11.6 176.51 11.56 176.478 11.544C176.062 11.272 175.662 11.056 175.278 10.896C174.91 10.736 174.454 10.656 173.91 10.656C172.742 10.656 171.83 11.056 171.174 11.856C170.534 12.64 170.214 13.736 170.214 15.144C170.214 16.552 170.534 17.64 171.174 18.408C171.83 19.176 172.742 19.56 173.91 19.56C174.454 19.56 174.918 19.48 175.302 19.32C175.702 19.16 176.102 18.944 176.502 18.672C176.678 18.56 176.846 18.464 177.006 18.384C177.166 18.304 177.302 18.264 177.414 18.264C177.59 18.264 177.734 18.336 177.846 18.48C177.974 18.624 178.038 18.808 178.038 19.032C178.038 19.24 177.982 19.432 177.87 19.608C177.758 19.768 177.55 19.952 177.246 20.16C176.798 20.464 176.254 20.712 175.614 20.904C174.99 21.08 174.358 21.168 173.718 21.168Z" fill="#3D81A8"/>
</svg>
