<svg width="90" height="90" viewBox="0 0 90 90" fill="none" xmlns="http://www.w3.org/2000/svg">
<path d="M85.9406 14.7656H67.5C66.7715 14.7656 66.1816 15.3555 66.1816 16.084C66.1816 16.8125 66.7715 17.4023 67.5 17.4023H85.9406C86.7254 17.4023 87.3633 18.0402 87.3633 18.8251V69.5929C87.3633 70.3777 86.7254 71.0156 85.9406 71.0156H4.05945C3.27461 71.0156 2.63672 70.3777 2.63672 69.5929V18.8251C2.63672 18.0402 3.27461 17.4023 4.05945 17.4023H33.0249V20.0391H6.5918C5.86327 20.0391 5.27344 20.6289 5.27344 21.3574V56.1916C5.27344 56.9195 5.86327 57.51 6.5918 57.51C7.32033 57.51 7.91016 56.9195 7.91016 56.1916V22.6758H33.0249V29.7482L27.3807 32.4447C26.9302 32.6603 26.6309 33.1258 26.6309 33.6346V55.1349C26.6309 55.643 26.9227 56.1058 27.3807 56.3248L44.4315 64.4712C44.8009 64.6449 45.2177 64.636 45.5685 64.4712L55.1541 59.8913C55.8112 59.5775 56.0893 58.7899 55.7755 58.1335C55.4617 57.4763 54.6735 57.1983 54.017 57.5121L46.3184 61.1904V42.6118L60.7324 35.7255V54.304L58.7741 55.2393C58.117 55.5531 57.8389 56.3406 58.1527 56.9971C58.4665 57.6542 59.2541 57.9323 59.9105 57.6185L62.6193 56.3248C63.0773 56.1058 63.3691 55.643 63.3691 55.1349V33.6346C63.3691 33.132 63.0766 32.6637 62.6193 32.4447L56.9751 29.7482V22.6758H82.0898V65.7422H7.91016V61.8166C7.91016 61.0881 7.32033 60.4983 6.5918 60.4983C5.86327 60.4983 5.27344 61.0881 5.27344 61.8166V67.0605C5.27344 67.7891 5.86327 68.3789 6.5918 68.3789H83.4082C84.1367 68.3789 84.7266 67.7891 84.7266 67.0605V21.3574C84.7266 20.6289 84.1367 20.0391 83.4082 20.0391H56.9751V17.4023H61.875C62.6035 17.4023 63.1934 16.8125 63.1934 16.084C63.1934 15.3555 62.6035 14.7656 61.875 14.7656H56.9751V12.1289H68.7964C69.5249 12.1289 70.1147 11.5391 70.1147 10.8105V7.68356C71.6494 7.13905 72.7515 5.67375 72.7515 3.95508C72.7515 1.77429 70.9772 0 68.7964 0C66.6156 0 64.8413 1.77429 64.8413 3.95508C64.8413 5.67375 65.9434 7.13905 67.478 7.68356V9.49219H55.6567C54.9282 9.49219 54.3384 10.082 54.3384 10.8105V14.7656H46.3184V7.68356C47.853 7.13905 48.9551 5.67375 48.9551 3.95508C48.9551 1.77429 47.1808 0 45 0C42.8192 0 41.0449 1.77429 41.0449 3.95508C41.0449 5.67375 42.147 7.13905 43.6816 7.68356V14.7656H35.6616V10.8105C35.6616 10.082 35.0718 9.49219 34.3433 9.49219H22.522V7.68356C24.0566 7.13905 25.1587 5.67375 25.1587 3.95508C25.1587 1.77429 23.3844 0 21.2036 0C19.0228 0 17.2485 1.77429 17.2485 3.95508C17.2485 5.67375 18.3506 7.13905 19.8853 7.68356V10.8105C19.8853 11.5391 20.4751 12.1289 21.2036 12.1289H33.0249V14.7656H4.05945C1.82098 14.7656 0 16.5866 0 18.8251V69.5929C0 71.8314 1.82098 73.6523 4.05945 73.6523H32.6418C32.1316 78.4884 28.9339 81.3126 27.9259 82.0898H22.3242C20.1434 82.0898 18.3691 83.8641 18.3691 86.0449C18.3691 88.2257 20.1434 90 22.3242 90H67.6758C69.8566 90 71.6309 88.2257 71.6309 86.0449C71.6309 83.8641 69.8566 82.0898 67.6758 82.0898H62.0776C61.0826 81.3153 57.8739 78.4657 57.3596 73.6523H85.9406C88.179 73.6523 90 71.8314 90 69.5929V18.8251C90 16.5866 88.179 14.7656 85.9406 14.7656ZM68.7964 2.63672C69.5235 2.63672 70.1147 3.22792 70.1147 3.95508C70.1147 4.68224 69.5235 5.27344 68.7964 5.27344C68.0692 5.27344 67.478 4.68224 67.478 3.95508C67.478 3.22792 68.0692 2.63672 68.7964 2.63672ZM45 2.63672C45.7272 2.63672 46.3184 3.22792 46.3184 3.95508C46.3184 4.68224 45.7272 5.27344 45 5.27344C44.2728 5.27344 43.6816 4.68224 43.6816 3.95508C43.6816 3.22792 44.2728 2.63672 45 2.63672ZM21.2036 2.63672C21.9308 2.63672 22.522 3.22792 22.522 3.95508C22.522 4.68224 21.9308 5.27344 21.2036 5.27344C20.4765 5.27344 19.8853 4.68224 19.8853 3.95508C19.8853 3.22792 20.4765 2.63672 21.2036 2.63672ZM35.6616 22.6758H43.6816V24.6568L35.6616 28.4889V22.6758ZM58.9925 33.6346L45 40.3191L31.0075 33.6346L45 26.9495L58.9925 33.6346ZM29.2676 35.7255L43.6816 42.6118V61.1904L29.2676 54.304V35.7255ZM54.3384 28.4889L46.3184 24.6568V22.6758H54.3384V28.4889ZM54.3384 17.4023V20.0391H46.3184V17.4023H54.3384ZM43.6816 17.4023V20.0391H35.6616V17.4023H43.6816ZM68.9941 86.0449C68.9941 86.7721 68.4029 87.3633 67.6758 87.3633H22.3242C21.5971 87.3633 21.0059 86.7721 21.0059 86.0449C21.0059 85.3178 21.5971 84.7266 22.3242 84.7266H67.6758C68.4029 84.7266 68.9941 85.3178 68.9941 86.0449ZM58.2962 82.0898H31.7038C33.2494 80.2847 34.964 77.4715 35.2929 73.6523H54.7071C55.036 77.4715 56.7506 80.2847 58.2962 82.0898Z" fill="#3D81A8"/>
</svg>
