<svg width="90" height="90" viewBox="0 0 90 90" fill="none" xmlns="http://www.w3.org/2000/svg">
<g opacity="0.96">
<path d="M82.9688 66.0938C82.9688 57.3764 77.2692 49.9753 69.4041 47.3934C72.4852 45.3853 74.5312 41.9133 74.5312 37.9688C74.5312 31.7658 69.4842 26.7188 63.2812 26.7188C62.6864 26.7188 62.107 26.7792 61.5375 26.8678C61.6162 26.64 61.7161 26.4178 61.785 26.1872L64.6875 25.5037V16.7541L61.7878 16.0706C61.4475 14.9288 60.9905 13.8263 60.4209 12.7758L61.9889 10.2403L55.8534 4.10344L53.318 5.67281C52.2689 5.10609 51.1664 4.64766 50.0217 4.30594L49.3397 1.40625H40.6603L39.9783 4.30594C38.835 4.64766 37.7311 5.10469 36.682 5.67281L34.1466 4.10344L28.0111 10.2403L29.5791 12.7758C29.0109 13.8263 28.5539 14.9288 28.2122 16.0706L25.3125 16.7555V25.5066L28.2136 26.19C28.2825 26.4192 28.3823 26.6414 28.4611 26.8692C27.893 26.7792 27.3136 26.7188 26.7188 26.7188C20.5158 26.7188 15.4688 31.7658 15.4688 37.9688C15.4688 41.9133 17.5148 45.3853 20.5959 47.3934C12.7308 49.9753 7.03125 57.3764 7.03125 66.0938V71.7188H28.8661C26.633 74.9109 25.3125 78.7866 25.3125 82.9688V88.5938H64.6875V82.9688C64.6875 78.7866 63.367 74.9109 61.1339 71.7188H82.9688V66.0938ZM66.0938 50.625C66.0938 52.9116 64.8056 54.8438 63.2812 54.8438C61.7569 54.8438 60.4688 52.9116 60.4688 50.625C60.4688 50.2256 60.525 49.8305 60.6094 49.4381C61.4897 49.2975 62.3812 49.2188 63.2812 49.2188C64.1939 49.2188 65.0841 49.3116 65.9573 49.4522C66.0389 49.8403 66.0938 50.2313 66.0938 50.625ZM45 63.2812C40.3467 63.2812 36.5625 59.497 36.5625 54.8438C36.5625 50.1905 40.3467 46.4062 45 46.4062C49.6533 46.4062 53.4375 50.1905 53.4375 54.8438C53.4375 59.497 49.6533 63.2812 45 63.2812ZM34.0537 50.9034C34.1733 50.9611 34.2942 51.0145 34.4123 51.075C33.9919 52.2562 33.75 53.5205 33.75 54.8438C33.75 55.4048 33.8048 55.9533 33.885 56.4933L32.0119 60.615L28.6031 56.3555L34.0537 50.9034ZM45 43.5938C41.1216 43.5938 37.6959 45.5667 35.6723 48.562C34.7611 48.0966 33.8147 47.7098 32.8444 47.392C35.9241 45.3825 37.9688 41.9119 37.9688 37.9688C37.9688 37.7072 37.9477 37.4513 37.9294 37.1953C38.5959 37.4892 39.2794 37.7438 39.9783 37.9533L40.6603 40.853H49.3397L50.0217 37.9533C50.7206 37.7438 51.4041 37.4892 52.0706 37.1953C52.0523 37.4513 52.0312 37.7072 52.0312 37.9688C52.0312 41.9133 54.0759 45.3825 57.1556 47.392C56.1867 47.7084 55.2403 48.098 54.3291 48.5634C52.3055 45.5681 48.8784 43.5938 45 43.5938ZM71.7188 37.9688C71.7188 42.622 67.9345 46.4062 63.2812 46.4062C58.628 46.4062 54.8438 42.622 54.8438 37.9688C54.8438 33.3155 58.628 29.5312 63.2812 29.5312C67.9345 29.5312 71.7188 33.3155 71.7188 37.9688ZM30.7167 24.6769L30.5114 23.8402L28.125 23.2777V18.9802L30.51 18.4191L30.7153 17.5823C31.0697 16.1367 31.6406 14.7544 32.4169 13.4775L32.8627 12.742L31.5717 10.6566L34.56 7.66828L36.6455 8.95922L37.3809 8.51203C38.655 7.73859 40.0373 7.16484 41.4872 6.81047L42.3239 6.60516L42.8878 4.21875H47.1122L47.6733 6.60375L48.51 6.80906C49.9598 7.16484 51.3422 7.73719 52.6162 8.51062L53.3517 8.95781L55.4372 7.66688L58.4255 10.6552L57.1359 12.742L57.5817 13.4775C58.358 14.7544 58.9289 16.1367 59.2833 17.5823L59.4886 18.4191L61.875 18.9816V23.2791L59.49 23.8402L59.2847 24.6769C59.0006 25.8398 58.5394 26.9733 57.9558 28.0631C55.7241 29.2683 53.9438 31.2061 52.9383 33.5517L52.6177 33.7458C51.3436 34.5192 49.9613 35.093 48.5114 35.4473L47.6747 35.6527L47.1136 38.0377H42.8892L42.3281 35.6512L41.4914 35.4459C40.0444 35.0916 38.662 34.5192 37.3852 33.7444L37.0645 33.5503C36.0591 31.2033 34.2787 29.2655 32.047 28.0603C31.462 26.9733 31.0008 25.8398 30.7167 24.6769ZM18.2812 37.9688C18.2812 33.3155 22.0655 29.5312 26.7188 29.5312C31.372 29.5312 35.1562 33.3155 35.1562 37.9688C35.1562 42.622 31.372 46.4062 26.7188 46.4062C22.0655 46.4062 18.2812 42.622 18.2812 37.9688ZM31.1639 49.8164L26.7188 54.2616L22.2862 49.8291C23.7009 49.4423 25.1831 49.2188 26.7188 49.2188C28.2305 49.2188 29.7239 49.4241 31.1639 49.8164ZM24.8344 56.3541L21.4256 60.6136L17.4994 51.9764C18.1041 51.5798 18.7397 51.2311 19.395 50.9133L24.8344 56.3541ZM9.84375 66.0938C9.84375 61.2309 11.9236 56.8547 15.2269 53.7722L20.7619 65.9489L26.7188 58.5014L32.6756 65.9489L35.2111 60.3703C36.1041 61.9453 37.3641 63.2841 38.8758 64.2698C35.9789 65.2205 33.3787 66.8222 31.2469 68.9077H16.875V60.4702H14.0625V68.9077H9.84375V66.0938ZM45 66.0938C47.4441 66.0938 49.7616 66.6267 51.8611 67.5661L45 83.6086L38.1389 67.5647C40.2384 66.6267 42.5559 66.0938 45 66.0938ZM28.125 82.9688C28.125 77.1159 31.1217 71.9536 35.6597 68.9259L42.8681 85.7812H35.1562V77.3438H32.3438V85.7812H28.125V82.9688ZM61.875 85.7812H57.6562V77.3438H54.8438V85.7812H47.1319L54.3403 68.9259C58.8783 71.9536 61.875 77.1159 61.875 82.9688V85.7812ZM80.1562 68.9062H75.9375V60.4688H73.125V68.9062H58.7517C56.6198 66.8208 54.0183 65.2191 51.1228 64.2684C54.2039 62.2603 56.25 58.7883 56.25 54.8438C56.25 53.5219 56.0081 52.2577 55.5877 51.0778C56.2697 50.7277 56.9742 50.4239 57.6956 50.1722C57.6872 50.3227 57.6562 50.4731 57.6562 50.625C57.6562 54.502 60.1791 57.6562 63.2812 57.6562C66.3834 57.6562 68.9062 54.502 68.9062 50.625C68.9062 50.4787 68.8767 50.3353 68.8683 50.1891C75.4313 52.5023 80.1562 58.7489 80.1562 66.0938V68.9062Z" fill="#3D81A8"/>
<path d="M45 26.7188C48.1022 26.7188 50.625 24.1959 50.625 21.0938C50.625 17.9916 48.1022 15.4688 45 15.4688C41.8978 15.4688 39.375 17.9916 39.375 21.0938C39.375 24.1959 41.8978 26.7188 45 26.7188ZM45 18.2812C46.5511 18.2812 47.8125 19.5427 47.8125 21.0938C47.8125 22.6448 46.5511 23.9062 45 23.9062C43.4489 23.9062 42.1875 22.6448 42.1875 21.0938C42.1875 19.5427 43.4489 18.2812 45 18.2812Z" fill="#3D81A8"/>
<path d="M45 32.3438C51.203 32.3438 56.25 27.2967 56.25 21.0938C56.25 14.8908 51.203 9.84375 45 9.84375C38.797 9.84375 33.75 14.8908 33.75 21.0938C33.75 27.2967 38.797 32.3438 45 32.3438ZM45 12.6562C49.6533 12.6562 53.4375 16.4405 53.4375 21.0938C53.4375 25.747 49.6533 29.5312 45 29.5312C40.3467 29.5312 36.5625 25.747 36.5625 21.0938C36.5625 16.4405 40.3467 12.6562 45 12.6562Z" fill="#3D81A8"/>
</g>
</svg>
