<svg width="90" height="90" viewBox="0 0 90 90" fill="none" xmlns="http://www.w3.org/2000/svg">
<path d="M82.7419 23.2258H72.5807V0H8.70968V23.2258H7.25806C3.25621 23.2258 0 26.482 0 30.4839V74.0323C0 78.0341 3.25621 81.2903 7.25806 81.2903H26.129V87.0968H20.3226V90H69.6774V87.0968H63.871V81.2903H82.7419C86.7438 81.2903 90 78.0341 90 74.0323V30.4839C90 26.482 86.7438 23.2258 82.7419 23.2258ZM69.6774 34.8387H72.5807V43.5484H69.6774V34.8387ZM66.7742 37.7419H40.6452V34.8387H66.7742V37.7419ZM37.7419 42.9055L29.449 39.796C29.1995 39.7018 29.0323 39.4608 29.0323 39.1936C29.0323 38.9263 29.1995 38.6853 29.4504 38.5911L37.7419 35.4816V42.9055ZM40.6452 40.6452H66.7742V43.5484H40.6452V40.6452ZM75.4839 34.8387H76.9355C79.3362 34.8387 81.2903 36.7929 81.2903 39.1936C81.2903 41.5942 79.3362 43.5484 76.9355 43.5484H75.4839V34.8387ZM38.9292 31.9355L28.4312 35.8721C27.0554 36.3874 26.129 37.7228 26.129 39.1936C26.129 40.6643 27.0554 41.9997 28.4298 42.515L38.9292 46.4516H69.6774V60.9677H11.6129V14.5161H69.6774V31.9355H38.9292ZM69.6774 2.90323V11.6129H11.6129V2.90323H69.6774ZM7.25806 26.129H8.70968V63.871H72.5807V46.4516H76.9355C80.9373 46.4516 84.1936 43.1954 84.1936 39.1936C84.1936 35.1917 80.9373 31.9355 76.9355 31.9355H72.5807V26.129H82.7419C85.1426 26.129 87.0968 28.0832 87.0968 30.4839V69.6774H2.90323V30.4839C2.90323 28.0832 4.85737 26.129 7.25806 26.129ZM60.9677 87.0968H29.0323V81.2903H60.9677V87.0968ZM82.7419 78.3871H7.25806C4.85737 78.3871 2.90323 76.433 2.90323 74.0323V72.5807H87.0968V74.0323C87.0968 76.433 85.1426 78.3871 82.7419 78.3871Z" fill="#3D81A8"/>
<path d="M14.5166 5.80646H17.4198V8.70968H14.5166V5.80646Z" fill="#3D81A8"/>
<path d="M20.3223 5.80646H23.2255V8.70968H20.3223V5.80646Z" fill="#3D81A8"/>
<path d="M26.1289 5.80646H29.0321V8.70968H26.1289V5.80646Z" fill="#3D81A8"/>
<path d="M14.5166 29.0323H31.936V17.4194H14.5166V29.0323ZM17.4198 20.3226H29.0327V26.1291H17.4198V20.3226Z" fill="#3D81A8"/>
<path d="M36.29 17.4194V29.0323H53.7094V17.4194H36.29ZM50.8062 26.1291H39.1933V20.3226H50.8062V26.1291Z" fill="#3D81A8"/>
<path d="M14.5166 31.9355H24.6779V34.8387H14.5166V31.9355Z" fill="#3D81A8"/>
<path d="M14.5166 37.7419H23.2263V40.6452H14.5166V37.7419Z" fill="#3D81A8"/>
<path d="M14.5166 43.5484H24.6779V46.4516H14.5166V43.5484Z" fill="#3D81A8"/>
<path d="M14.5166 49.3549H66.7747V52.2581H14.5166V49.3549Z" fill="#3D81A8"/>
<path d="M63.8711 55.1613H66.7743V58.0645H63.8711V55.1613Z" fill="#3D81A8"/>
<path d="M14.5166 55.1613H60.9682V58.0645H14.5166V55.1613Z" fill="#3D81A8"/>
</svg>
